<svg xmlns="http://www.w3.org/2000/svg" version="1.1" xmlns:xlink="http://www.w3.org/1999/xlink" xmlns:svgjs="http://svgjs.dev/svgjs" width="128" height="128" viewBox="0 0 128 128"><g transform="matrix(0.8046875,0,0,0.8046875,12.760752631578946,33.63060472905422)"><svg viewBox="0 0 95 56" data-background-color="#ffffff" preserveAspectRatio="xMidYMid meet" height="75" width="128" xmlns="http://www.w3.org/2000/svg" xmlns:xlink="http://www.w3.org/1999/xlink"><g id="tight-bounds" transform="matrix(1,0,0,1,-0.24049999999999727,0.17965376079473572)"><svg viewBox="0 0 95.481 55.640692478410536" height="55.640692478410536" width="95.481"><g><svg viewBox="0 0 95.481 55.640692478410536" height="55.640692478410536" width="95.481"><g><svg viewBox="0 0 95.481 55.640692478410536" height="55.640692478410536" width="95.481"><g id="textblocktransform"><svg viewBox="0 0 95.481 55.640692478410536" height="55.640692478410536" width="95.481" id="textblock"><g><svg viewBox="0 0 95.481 55.640692478410536" height="55.640692478410536" width="95.481"><g><svg viewBox="0 0 95.481 55.640692478410536" height="55.640692478410536" width="95.481"><g><svg xmlns="http://www.w3.org/2000/svg" xmlns:xlink="http://www.w3.org/1999/xlink" version="1.1" x="0" y="0" viewBox="3.8649999999999998 25.130000000000003 99.93828369507234 58.23813439215834" enable-background="new 0 0 107.667 108.5" xml:space="preserve" height="55.640692478410536" width="95.481" class="icon-icon-0" data-fill-palette-color="accent" id="icon-0"><path d="M92.224 63.35c-3.18-21.586-11.207-38.22-18.693-38.22-6.738 0-9.266 3.528-19.439 3.528-10.172 0-12.701-3.528-19.44-3.528-7.485 0-15.513 16.634-18.694 38.22H92.224z" fill="#4aadfc" data-fill-palette-color="accent"></path><path d="M4.43 82.044c-0.312 0.014-0.565 0.254-0.565 0.565 0 0.313 0.253 0.56 0.565 0.565 23.061 0.485 67.353 0.6 92.035-6.441 12.016-3.43 7.172-14.726 0.367-13.202C61.431 71.464 70.162 79.138 4.43 82.044z" fill="#4aadfc" data-fill-palette-color="accent"></path><g fill="#4aadfc" data-fill-palette-color="accent"><path d="M62.986 73.243H14.88c-0.169 2.376-0.277 4.788-0.318 7.222C41.368 78.876 53.615 76.297 62.986 73.243z" fill="#4aadfc" data-fill-palette-color="accent"></path></g></svg></g></svg></g></svg></g></svg></g></svg></g></svg></g><defs></defs></svg><rect width="95.481" height="55.640692478410536" fill="none" stroke="none" visibility="hidden"></rect></g></svg></g></svg>